<svg width="34" height="34" viewBox="0 0 34 34" fill="none" xmlns="http://www.w3.org/2000/svg">
<g id="&#240;&#159;&#166;&#134; icon &#34;heart&#34;">
<path id="Vector" d="M17 29.75C16.8135 29.7511 16.6287 29.7153 16.4561 29.6448C16.2835 29.5743 16.1265 29.4705 15.9941 29.3392L4.98665 18.3175C3.60591 16.9223 2.83142 15.0387 2.83142 13.0758C2.83142 11.1129 3.60591 9.22933 4.98665 7.83416C6.37819 6.44655 8.26316 5.66733 10.2283 5.66733C12.1935 5.66733 14.0784 6.44655 15.47 7.83416L17 9.36416L18.53 7.83416C19.9215 6.44655 21.8065 5.66733 23.7716 5.66733C25.7368 5.66733 27.6218 6.44655 29.0133 7.83416C30.3941 9.22933 31.1685 11.1129 31.1685 13.0758C31.1685 15.0387 30.3941 16.9223 29.0133 18.3175L18.0058 29.3392C17.8734 29.4705 17.7165 29.5743 17.5438 29.6448C17.3712 29.7153 17.1864 29.7511 17 29.75Z" fill="#231F20"/>
</g>
</svg>
