<svg width="41" height="43" viewBox="0 0 41 43" fill="none" xmlns="http://www.w3.org/2000/svg">
<g id="&#240;&#159;&#166;&#134; icon &#34;droplet&#34;">
<path id="Vector" d="M20.3427 37.4909C18.6693 37.4759 17.0158 37.1097 15.4794 36.414C13.9431 35.7182 12.5552 34.7068 11.3974 33.4396C9.04678 30.8532 7.74963 27.408 7.78126 23.835C7.81289 20.262 9.17081 16.8426 11.5668 14.3025L19.4279 6.03994C19.5811 5.86697 19.7675 5.73003 19.9748 5.63815C20.1821 5.54626 20.4057 5.50152 20.6307 5.50687C20.8561 5.51015 21.0786 5.56057 21.2851 5.65515C21.4916 5.74973 21.6781 5.88659 21.8336 6.0577L29.5591 14.4446C31.912 17.0287 33.2121 20.4726 33.1837 24.0456C33.1552 27.6186 31.8003 31.0393 29.4066 33.5817C28.2277 34.8441 26.8161 35.8417 25.2579 36.5137C23.6997 37.1858 22.0274 37.5182 20.3427 37.4909Z" fill="#231F20"/>
</g>
</svg>
